<svg width="50" height="50" viewBox="0 0 50 50" fill="none" xmlns="http://www.w3.org/2000/svg">
<g clip-path="url(#clip0_1_231)">
<path d="M42 0H8C3.58172 0 0 3.58172 0 8V42C0 46.4183 3.58172 50 8 50H42C46.4183 50 50 46.4183 50 42V8C50 3.58172 46.4183 0 42 0Z" fill="#E4F9B2"/>
<path fill-rule="evenodd" clip-rule="evenodd" d="M18.042 17.713C18.1037 17.5069 18.2303 17.3262 18.4029 17.1978C18.5755 17.0693 18.7849 17 19 17H29C29.2151 17 29.4245 17.0693 29.5971 17.1978C29.7697 17.3262 29.8963 17.5069 29.958 17.713L31.246 22.007C32.2625 22.0696 33.2167 22.5176 33.9143 23.2596C34.6119 24.0015 35.0001 24.9816 35 26V30C35 30.2652 34.8946 30.5196 34.7071 30.7071C34.5196 30.8946 34.2652 31 34 31H32.83C32.6228 31.5864 32.2385 32.094 31.7303 32.4525C31.222 32.811 30.615 33.0027 29.993 33.0012C29.3711 32.9996 28.765 32.8049 28.2585 32.4439C27.7521 32.0829 27.3703 31.5734 27.166 30.986C27.112 30.996 27.056 31 27 31H22.83C22.6234 31.5855 22.2403 32.0926 21.7334 32.4512C21.2265 32.8099 20.6209 33.0024 20 33.0024C19.3791 33.0024 18.7735 32.8099 18.2666 32.4512C17.7597 32.0926 17.3766 31.5855 17.17 31H16C15.7348 31 15.4804 30.8946 15.2929 30.7071C15.1054 30.5196 15 30.2652 15 30V24C14.9999 23.5126 15.1777 23.0419 15.5001 22.6764C15.8226 22.3109 16.2674 22.0757 16.751 22.015L18.042 17.713ZM28.256 19L29.156 22H25V19H28.256ZM23 19V22H18.844L19.744 19H23ZM17 24H31C31.3986 23.9998 31.7881 24.1187 32.1186 24.3414C32.4491 24.5641 32.7055 24.8805 32.855 25.25H32C31.8011 25.25 31.6103 25.329 31.4697 25.4697C31.329 25.6103 31.25 25.8011 31.25 26C31.25 26.1989 31.329 26.3897 31.4697 26.5303C31.6103 26.671 31.8011 26.75 32 26.75H33V29H32.83C32.6228 28.4136 32.2385 27.906 31.7303 27.5475C31.222 27.189 30.615 26.9973 29.993 26.9988C29.3711 27.0004 28.765 27.1951 28.2585 27.5561C27.7521 27.9171 27.3703 28.4266 27.166 29.014C27.1111 29.0048 27.0556 29.0001 27 29H22.83C22.6234 28.4145 22.2403 27.9074 21.7334 27.5488C21.2265 27.1901 20.6209 26.9975 20 26.9975C19.3791 26.9975 18.7735 27.1901 18.2666 27.5488C17.7597 27.9074 17.3766 28.4145 17.17 29H17V26.75H18C18.1989 26.75 18.3897 26.671 18.5303 26.5303C18.671 26.3897 18.75 26.1989 18.75 26C18.75 25.8011 18.671 25.6103 18.5303 25.4697C18.3897 25.329 18.1989 25.25 18 25.25H17V24ZM21 30C21 29.7348 20.8946 29.4804 20.7071 29.2929C20.5196 29.1054 20.2652 29 20 29C19.7348 29 19.4804 29.1054 19.2929 29.2929C19.1054 29.4804 19 29.7348 19 30C19 30.2652 19.1054 30.5196 19.2929 30.7071C19.4804 30.8946 19.7348 31 20 31C20.2652 31 20.5196 30.8946 20.7071 30.7071C20.8946 30.5196 21 30.2652 21 30ZM30 29C29.7348 29 29.4804 29.1054 29.2929 29.2929C29.1054 29.4804 29 29.7348 29 30C29 30.2652 29.1054 30.5196 29.2929 30.7071C29.4804 30.8946 29.7348 31 30 31C30.2652 31 30.5196 30.8946 30.7071 30.7071C30.8946 30.5196 31 30.2652 31 30C31 29.7348 30.8946 29.4804 30.7071 29.2929C30.5196 29.1054 30.2652 29 30 29Z" fill="#0E0E0F"/>
</g>
<defs>
<clipPath id="clip0_1_231">
<rect width="50" height="50" fill="white"/>
</clipPath>
</defs>
</svg>
