<svg width="50" height="50" viewBox="0 0 50 50" fill="none" xmlns="http://www.w3.org/2000/svg">
<g clip-path="url(#clip0_1_187)">
<path d="M42 0H8C3.58172 0 0 3.58172 0 8V42C0 46.4183 3.58172 50 8 50H42C46.4183 50 50 46.4183 50 42V8C50 3.58172 46.4183 0 42 0Z" fill="#FFDAED"/>
<path fill-rule="evenodd" clip-rule="evenodd" d="M23.168 18.832C23.168 18.4697 23.2754 18.1155 23.4767 17.8142C23.6781 17.5129 23.9642 17.2781 24.2989 17.1395C24.6337 17.0008 25.002 16.9645 25.3574 17.0352C25.7128 17.1059 26.0392 17.2804 26.2954 17.5366C26.5516 17.7928 26.7261 18.1192 26.7968 18.4746C26.8675 18.83 26.8312 19.1983 26.6925 19.5331C26.5539 19.8678 26.3191 20.154 26.0178 20.3553C25.7165 20.5566 25.3623 20.664 25 20.664C24.7348 20.664 24.4804 20.7694 24.2929 20.9569C24.1054 21.1444 24 21.3988 24 21.664V24.48L16.562 30.2C16.0761 30.5736 15.6825 31.0538 15.4117 31.6036C15.1409 32.1534 15 32.7581 15 33.371V34.006C15 34.2712 15.1054 34.5256 15.2929 34.7131C15.4804 34.9006 15.7348 35.006 16 35.006H34C34.2652 35.006 34.5196 34.9006 34.7071 34.7131C34.8946 34.5256 35 34.2712 35 34.006V33.378C35.0001 32.7627 34.8582 32.1556 34.5853 31.6041C34.3125 31.0525 33.9161 30.5714 33.427 30.198L26 24.528V22.533C26.8953 22.2889 27.6717 21.7284 28.1852 20.9554C28.6987 20.1824 28.9144 19.2494 28.7922 18.3295C28.6701 17.4095 28.2185 16.5651 27.5211 15.9528C26.8238 15.3406 25.928 15.002 25 15C23.9837 15 23.009 15.4037 22.2904 16.1224C21.5717 16.841 21.168 17.8157 21.168 18.832C21.168 19.0972 21.2734 19.3516 21.4609 19.5391C21.6484 19.7266 21.9028 19.832 22.168 19.832C22.4332 19.832 22.6876 19.7266 22.8751 19.5391C23.0626 19.3516 23.168 19.0972 23.168 18.832ZM17.781 31.786L24.969 26.258L32.214 31.788C32.606 32.0875 32.8734 32.5213 32.965 33.006H17.033C17.1233 32.521 17.3897 32.0865 17.781 31.786Z" fill="#0E0E0F"/>
</g>
<defs>
<clipPath id="clip0_1_187">
<rect width="50" height="50" fill="white"/>
</clipPath>
</defs>
</svg>
