<svg width="50" height="50" viewBox="0 0 50 50" fill="none" xmlns="http://www.w3.org/2000/svg">
<g clip-path="url(#clip0_1_207)">
<path d="M42 0H8C3.58172 0 0 3.58172 0 8V42C0 46.4183 3.58172 50 8 50H42C46.4183 50 50 46.4183 50 42V8C50 3.58172 46.4183 0 42 0Z" fill="#FDF6BC"/>
<path fill-rule="evenodd" clip-rule="evenodd" d="M17 17.2C17 17.09 17.09 17 17.2 17H32.8C32.91 17 33 17.09 33 17.2V25.8H17V17.2ZM17 27.8V29.2C17 29.31 17.09 29.4 17.2 29.4H32.8C32.853 29.4 32.9039 29.3789 32.9414 29.3414C32.9789 29.3039 33 29.253 33 29.2V27.8H17ZM17.2 15C16.6165 15 16.0569 15.2318 15.6444 15.6444C15.2318 16.0569 15 16.6165 15 17.2V29.2C15 29.7835 15.2318 30.3431 15.6444 30.7556C16.0569 31.1682 16.6165 31.4 17.2 31.4H22.2V33H19.6V35H30.4V33H27.8V31.4H32.8C33.3835 31.4 33.9431 31.1682 34.3556 30.7556C34.7682 30.3431 35 29.7835 35 29.2V17.2C35 16.6165 34.7682 16.0569 34.3556 15.6444C33.9431 15.2318 33.3835 15 32.8 15H17.2ZM25.8 31.4H24.2V33H25.8V31.4Z" fill="#0E0E0F"/>
</g>
<defs>
<clipPath id="clip0_1_207">
<rect width="50" height="50" fill="white"/>
</clipPath>
</defs>
</svg>
