<svg width="50" height="50" viewBox="0 0 50 50" fill="none" xmlns="http://www.w3.org/2000/svg">
<g clip-path="url(#clip0_1_235)">
<path d="M42 0H8C3.58172 0 0 3.58172 0 8V42C0 46.4183 3.58172 50 8 50H42C46.4183 50 50 46.4183 50 42V8C50 3.58172 46.4183 0 42 0Z" fill="#DDDEFF"/>
<path fill-rule="evenodd" clip-rule="evenodd" d="M25.841 19.8388C26.252 19.2778 27.06 18.8358 28.122 18.5678C28.4387 18.489 28.7595 18.4279 29.083 18.3848L29.41 18.3448L29.406 18.5978C29.3899 19.1644 29.3168 19.7279 29.188 20.2798C29.025 20.9488 28.778 21.5018 28.446 21.9038C27.896 22.5048 26.918 22.5908 26.231 22.0638C25.8992 21.8092 25.675 21.4393 25.6027 21.0272C25.5305 20.6152 25.6156 20.1911 25.841 19.8388ZM23.495 24.3338C23.2696 24.5767 22.9588 24.7228 22.628 24.7412C22.2971 24.7597 21.972 24.6491 21.721 24.4328C21.348 24.1098 21.031 23.6188 20.781 22.9998L20.671 22.7048C20.6008 22.5035 20.5391 22.2993 20.486 22.0928L20.404 21.7428L20.721 21.7378C21.15 21.7408 21.579 21.7798 21.985 21.8648C22.618 21.9968 23.124 22.2328 23.474 22.5698C23.949 23.0438 23.964 23.8288 23.495 24.3338ZM29.956 23.2148C30.535 22.5138 30.903 21.6928 31.131 20.7518C31.365 19.7868 31.436 18.7938 31.406 17.8798L31.381 17.3958L31.362 17.1888L31.263 16.3038L30.246 16.2998C29.3654 16.3065 28.4887 16.4169 27.634 16.6288C26.16 16.9998 24.958 17.6568 24.19 18.7108C23.87 19.2108 23.68 19.7528 23.616 20.2978C23.2242 20.1233 22.8144 19.9922 22.394 19.9068C21.447 19.7088 20.466 19.6998 19.549 19.8008L19.319 19.8288L19.077 19.8658L18.2 20.0278L18.269 21.0238L18.299 21.2908L18.348 21.6258L18.381 21.8158C18.498 22.4708 18.675 23.1268 18.926 23.7488C19.287 24.6408 19.771 25.3918 20.415 25.9468C20.9015 26.3664 21.5004 26.6339 22.1375 26.7162C22.7746 26.7985 23.4219 26.692 23.999 26.4098L23.998 30.0758C22.2973 30.2981 20.7184 31.0785 19.509 32.2948L20.927 33.7048L21.122 33.5188C22.2144 32.5178 23.6517 31.9781 25.1329 32.0128C26.6142 32.0474 28.0247 32.6538 29.069 33.7048L30.487 32.2948L30.266 32.0798C29.086 30.9847 27.5943 30.2843 25.998 30.0758V24.1898C26.6802 24.4367 27.4203 24.4759 28.1248 24.3024C28.8293 24.1288 29.4665 23.7504 29.956 23.2148Z" fill="#0E0E0F"/>
</g>
<defs>
<clipPath id="clip0_1_235">
<rect width="50" height="50" fill="white"/>
</clipPath>
</defs>
</svg>
