<svg width="50" height="50" viewBox="0 0 50 50" fill="none" xmlns="http://www.w3.org/2000/svg">
<g clip-path="url(#clip0_1_183)">
<path d="M42 0H8C3.58172 0 0 3.58172 0 8V42C0 46.4183 3.58172 50 8 50H42C46.4183 50 50 46.4183 50 42V8C50 3.58172 46.4183 0 42 0Z" fill="#E7D6FD"/>
<path fill-rule="evenodd" clip-rule="evenodd" d="M29.934 15.6212C28.771 15.1405 27.5129 14.9342 26.2574 15.0183C25.0018 15.1024 23.7825 15.4747 22.694 16.1062L23.698 17.8362C24.7295 17.2373 25.9119 16.949 27.1032 17.0058C28.2946 17.0627 29.4442 17.4623 30.4139 18.1566C31.3837 18.8509 32.1323 19.8105 32.57 20.92C33.0076 22.0295 33.1156 23.2418 32.881 24.4112C32.6952 25.3445 32.2972 26.2226 31.7177 26.9774C31.1381 27.7323 30.3927 28.3436 29.539 28.7642C28.6853 29.1841 27.7464 29.4018 26.795 29.4002H24.395V31.4002H32.99V32.2002C32.99 32.4123 32.9057 32.6158 32.7557 32.7658C32.6057 32.9159 32.4022 33.0002 32.19 33.0002H24.396V35.0002H32.191C32.5587 35.0003 32.9228 34.9279 33.2625 34.7873C33.6022 34.6466 33.9109 34.4403 34.1708 34.1803C34.4308 33.9202 34.6369 33.6115 34.7775 33.2717C34.9181 32.932 34.9903 32.5678 34.99 32.2002V29.4002H32.168C33.332 28.3924 34.1887 27.0773 34.6402 25.6054C35.0917 24.1335 35.1197 22.5642 34.721 21.0772C34.3953 19.8614 33.7941 18.7369 32.964 17.7907C32.1338 16.8446 31.0971 16.1023 29.934 15.6212ZM21.797 16.7642L16.199 15.0142V21.0002H15V35.0002H22.996V21.0002H21.797V16.7642ZM19.797 21.0002H18.2V17.7352L19.798 18.2352L19.797 21.0002ZM17 33.0002V31.4002H20.996V33.0002H17ZM20.996 23.0002V29.4002H17V23.0002H20.996Z" fill="#0E0E0F"/>
</g>
<defs>
<clipPath id="clip0_1_183">
<rect width="50" height="50" fill="white"/>
</clipPath>
</defs>
</svg>
