<svg width="50" height="50" viewBox="0 0 50 50" fill="none" xmlns="http://www.w3.org/2000/svg">
<g clip-path="url(#clip0_1_195)">
<path d="M42 0H8C3.58172 0 0 3.58172 0 8V42C0 46.4183 3.58172 50 8 50H42C46.4183 50 50 46.4183 50 42V8C50 3.58172 46.4183 0 42 0Z" fill="#DDDEFF"/>
<path fill-rule="evenodd" clip-rule="evenodd" d="M24.375 15.2199C24.5524 15.0779 24.7728 15.0005 25 15.0005C25.2272 15.0005 25.4476 15.0779 25.625 15.2199L34.625 22.4199L35.405 23.0439L34.156 24.6059L33.376 23.9809L25 17.2799L16.625 23.9799L15.844 24.6049L14.594 23.0429L15.375 22.4179L24.375 15.2179V15.2199ZM17.4 33.9999V24.3999H19.4V32.9999H22.2V30.9999C22.2 30.6322 22.2724 30.2681 22.4131 29.9283C22.5538 29.5886 22.7601 29.28 23.0201 29.02C23.2801 28.76 23.5888 28.5537 23.9285 28.413C24.2682 28.2723 24.6323 28.1999 25 28.1999C25.3677 28.1999 25.7318 28.2723 26.0715 28.413C26.4112 28.5537 26.7199 28.76 26.9799 29.02C27.2399 29.28 27.4461 29.5886 27.5869 29.9283C27.7276 30.2681 27.8 30.6322 27.8 30.9999V32.9999H30.6V24.3999H32.6V34.9999H25.8V30.9999C25.8 30.7877 25.7157 30.5842 25.5657 30.4342C25.4157 30.2841 25.2122 30.1999 25 30.1999C24.7878 30.1999 24.5843 30.2841 24.4343 30.4342C24.2843 30.5842 24.2 30.7877 24.2 30.9999V34.9999H17.4V33.9999ZM25 20.9999C24.2574 20.9999 23.5452 21.2949 23.0201 21.82C22.495 22.3451 22.2 23.0573 22.2 23.7999C22.2 24.5425 22.495 25.2547 23.0201 25.7798C23.5452 26.3049 24.2574 26.5999 25 26.5999C25.7426 26.5999 26.4548 26.3049 26.9799 25.7798C27.505 25.2547 27.8 24.5425 27.8 23.7999C27.8 23.0573 27.505 22.3451 26.9799 21.82C26.4548 21.2949 25.7426 20.9999 25 20.9999ZM24.2 23.7999C24.2 23.5877 24.2843 23.3842 24.4343 23.2342C24.5843 23.0841 24.7878 22.9999 25 22.9999C25.2122 22.9999 25.4157 23.0841 25.5657 23.2342C25.7157 23.3842 25.8 23.5877 25.8 23.7999C25.8 24.012 25.7157 24.2155 25.5657 24.3655C25.4157 24.5156 25.2122 24.5999 25 24.5999C24.7878 24.5999 24.5843 24.5156 24.4343 24.3655C24.2843 24.2155 24.2 24.012 24.2 23.7999Z" fill="#0E0E0F"/>
</g>
<defs>
<clipPath id="clip0_1_195">
<rect width="50" height="50" fill="white"/>
</clipPath>
</defs>
</svg>
