<svg width="50" height="50" viewBox="0 0 50 50" fill="none" xmlns="http://www.w3.org/2000/svg">
<g clip-path="url(#clip0_1_211)">
<path d="M42 0H8C3.58172 0 0 3.58172 0 8V42C0 46.4183 3.58172 50 8 50H42C46.4183 50 50 46.4183 50 42V8C50 3.58172 46.4183 0 42 0Z" fill="#F9D4FF"/>
<path fill-rule="evenodd" clip-rule="evenodd" d="M32.886 15.7349L34.31 15.6899L34.265 17.1139L27.431 23.9479L29.518 26.0349L28.104 27.4489L28.086 27.4309C27.9077 27.2526 27.6658 27.1524 27.4135 27.1524C27.1613 27.1524 26.9194 27.2526 26.741 27.4309C26.5627 27.6093 26.4625 27.8512 26.4625 28.1034C26.4625 28.3557 26.5627 28.5976 26.741 28.7759L26.724 28.7929L26.742 28.8109L21.613 33.9399C21.288 34.265 20.9022 34.5228 20.4775 34.6987C20.0528 34.8747 19.5977 34.9652 19.138 34.9652C18.6784 34.9652 18.2232 34.8747 17.7985 34.6987C17.3739 34.5228 16.988 34.265 16.663 33.9399L16.061 33.3369C15.736 33.0119 15.4781 32.6261 15.3022 32.2014C15.1263 31.7768 15.0358 31.3216 15.0358 30.8619C15.0358 30.4023 15.1263 29.9471 15.3022 29.5225C15.4781 29.0978 15.736 28.712 16.061 28.3869L21.19 23.2589L21.207 23.2759L21.224 23.2579C21.3123 23.3462 21.417 23.4162 21.5323 23.464C21.6476 23.5117 21.7712 23.5363 21.896 23.5363C22.0208 23.5363 22.1444 23.5117 22.2597 23.464C22.375 23.4162 22.4798 23.3462 22.568 23.2579C22.6563 23.1697 22.7263 23.0649 22.774 22.9496C22.8218 22.8343 22.8464 22.7107 22.8464 22.5859C22.8464 22.4611 22.8218 22.3376 22.774 22.2223C22.7263 22.107 22.6563 22.0022 22.568 21.9139L22.552 21.8969L23.966 20.4819L26.052 22.5689L32.886 15.7349ZM26.11 25.4549L24.544 23.8889C24.29 24.4074 23.8891 24.8397 23.3913 25.132C22.8934 25.4243 22.3205 25.5638 21.744 25.5329L17.475 29.8019C17.1941 30.0832 17.0363 30.4644 17.0363 30.8619C17.0363 31.2594 17.1941 31.6407 17.475 31.9219L18.077 32.5249C18.2163 32.6643 18.3817 32.7749 18.5638 32.8503C18.7458 32.9258 18.941 32.9646 19.138 32.9646C19.3351 32.9646 19.5302 32.9258 19.7123 32.8503C19.8943 32.7749 20.0597 32.6643 20.199 32.5249L24.467 28.2569C24.4357 27.6802 24.5748 27.107 24.8669 26.6087C25.1591 26.1105 25.5914 25.7092 26.11 25.4549ZM18.431 31.5689C18.2435 31.3814 18.1382 31.1271 18.1382 30.8619C18.1382 30.5968 18.2435 30.3425 18.431 30.1549L21.879 26.7069C21.9719 26.614 22.0821 26.5403 22.2034 26.49C22.3248 26.4397 22.4548 26.4138 22.5862 26.4137C22.7175 26.4137 22.8476 26.4395 22.969 26.4897C23.0903 26.54 23.2006 26.6136 23.2935 26.7064C23.3864 26.7993 23.4601 26.9095 23.5105 27.0309C23.5608 27.1522 23.5867 27.2822 23.5867 27.4136C23.5868 27.5449 23.5609 27.675 23.5107 27.7964C23.4605 27.9177 23.3869 28.028 23.294 28.1209L19.845 31.5689C19.6575 31.7564 19.4032 31.8617 19.138 31.8617C18.8729 31.8617 18.6185 31.7564 18.431 31.5689Z" fill="#0E0E0F"/>
</g>
<defs>
<clipPath id="clip0_1_211">
<rect width="50" height="50" fill="white"/>
</clipPath>
</defs>
</svg>
