<svg width="50" height="50" viewBox="0 0 50 50" fill="none" xmlns="http://www.w3.org/2000/svg">
<g clip-path="url(#clip0_1_227)">
<path d="M42 0H8C3.58172 0 0 3.58172 0 8V42C0 46.4183 3.58172 50 8 50H42C46.4183 50 50 46.4183 50 42V8C50 3.58172 46.4183 0 42 0Z" fill="#BEEBFC"/>
<path fill-rule="evenodd" clip-rule="evenodd" d="M26.8 15H25.8V22.2H19.4V20.8C19.4 19.8983 19.0418 19.0335 18.4042 18.3958C17.7665 17.7582 16.9017 17.4 16 17.4V19.4C16.3713 19.4 16.7274 19.5475 16.99 19.8101C17.2525 20.0726 17.4 20.4287 17.4 20.8V24.4C17.4 25.0041 17.519 25.6022 17.7502 26.1603C17.9813 26.7184 18.3202 27.2255 18.7473 27.6527C19.1745 28.0798 19.6816 28.4187 20.2397 28.6498C20.7978 28.881 21.3959 29 22 29H30.4C31.0041 29 31.6022 28.881 32.1603 28.6498C32.7184 28.4187 33.2255 28.0798 33.6527 27.6527C34.0798 27.2255 34.4187 26.7184 34.6498 26.1603C34.881 25.6022 35 25.0041 35 24.4V23.3C35 23.266 34.999 23.233 34.996 23.2H35C35 21.0252 34.1361 18.9395 32.5983 17.4017C31.0605 15.8639 28.9748 15 26.8 15ZM32.92 22.2C32.7105 20.9179 32.1035 19.734 31.1848 18.8155C30.2661 17.897 29.0821 17.2903 27.8 17.081V22.201L32.92 22.2ZM19.4 24.2V24.4C19.4 25.0896 19.6739 25.7509 20.1615 26.2385C20.6491 26.7261 21.3104 27 22 27H30.4C31.0896 27 31.7509 26.7261 32.2385 26.2385C32.7261 25.7509 33 25.0896 33 24.4V24.2H19.4ZM21.8 32.2C21.8 31.9878 21.8843 31.7843 22.0343 31.6343C22.1843 31.4843 22.3878 31.4 22.6 31.4C22.8122 31.4 23.0157 31.4843 23.1657 31.6343C23.3157 31.7843 23.4 31.9878 23.4 32.2C23.4 32.4122 23.3157 32.6157 23.1657 32.7657C23.0157 32.9157 22.8122 33 22.6 33C22.3878 33 22.1843 32.9157 22.0343 32.7657C21.8843 32.6157 21.8 32.4122 21.8 32.2ZM22.6 29.4C22.2323 29.4 21.8682 29.4724 21.5285 29.6131C21.1888 29.7539 20.8801 29.9601 20.6201 30.2201C20.3601 30.4801 20.1539 30.7888 20.0131 31.1285C19.8724 31.4682 19.8 31.8323 19.8 32.2C19.8 32.5677 19.8724 32.9318 20.0131 33.2715C20.1539 33.6112 20.3601 33.9199 20.6201 34.1799C20.8801 34.4399 21.1888 34.6461 21.5285 34.7869C21.8682 34.9276 22.2323 35 22.6 35C23.3426 35 24.0548 34.705 24.5799 34.1799C25.105 33.6548 25.4 32.9426 25.4 32.2C25.4 31.4574 25.105 30.7452 24.5799 30.2201C24.0548 29.695 23.3426 29.4 22.6 29.4ZM29.8 31.4C29.5878 31.4 29.3843 31.4843 29.2343 31.6343C29.0843 31.7843 29 31.9878 29 32.2C29 32.4122 29.0843 32.6157 29.2343 32.7657C29.3843 32.9157 29.5878 33 29.8 33C30.0122 33 30.2157 32.9157 30.3657 32.7657C30.5157 32.6157 30.6 32.4122 30.6 32.2C30.6 31.9878 30.5157 31.7843 30.3657 31.6343C30.2157 31.4843 30.0122 31.4 29.8 31.4ZM27 32.2C27 31.4574 27.295 30.7452 27.8201 30.2201C28.3452 29.695 29.0574 29.4 29.8 29.4C30.5426 29.4 31.2548 29.695 31.7799 30.2201C32.305 30.7452 32.6 31.4574 32.6 32.2C32.6 32.9426 32.305 33.6548 31.7799 34.1799C31.2548 34.705 30.5426 35 29.8 35C29.0574 35 28.3452 34.705 27.8201 34.1799C27.295 33.6548 27 32.9426 27 32.2Z" fill="#0E0E0F"/>
</g>
<defs>
<clipPath id="clip0_1_227">
<rect width="50" height="50" fill="white"/>
</clipPath>
</defs>
</svg>
