<svg width="50" height="50" viewBox="0 0 50 50" fill="none" xmlns="http://www.w3.org/2000/svg">
<g clip-path="url(#clip0_1_223)">
<path d="M42 0H8C3.58172 0 0 3.58172 0 8V42C0 46.4183 3.58172 50 8 50H42C46.4183 50 50 46.4183 50 42V8C50 3.58172 46.4183 0 42 0Z" fill="#FFE09D"/>
<path fill-rule="evenodd" clip-rule="evenodd" d="M29 15H21C19.346 15 18 16.346 18 18V32C18 33.654 19.346 35 21 35H29C30.654 35 32 33.654 32 32V18C32 16.346 30.654 15 29 15ZM30 32C30 32.552 29.551 33 29 33H21C20.449 33 20 32.552 20 32V18C20 17.449 20.449 17 21 17H22.216L23.008 18H27.008L27.784 17H29C29.551 17 30 17.449 30 18V32ZM25 32C25.3978 32 25.7794 31.842 26.0607 31.5607C26.342 31.2794 26.5 30.8978 26.5 30.5C26.5 30.1022 26.342 29.7206 26.0607 29.4393C25.7794 29.158 25.3978 29 25 29C24.6022 29 24.2206 29.158 23.9393 29.4393C23.658 29.7206 23.5 30.1022 23.5 30.5C23.5 30.8978 23.658 31.2794 23.9393 31.5607C24.2206 31.842 24.6022 32 25 32Z" fill="#0E0E0F"/>
</g>
<defs>
<clipPath id="clip0_1_223">
<rect width="50" height="50" fill="white"/>
</clipPath>
</defs>
</svg>
