<svg width="50" height="50" viewBox="0 0 50 50" fill="none" xmlns="http://www.w3.org/2000/svg">
<g clip-path="url(#clip0_1_215)">
<path d="M42 0H8C3.58172 0 0 3.58172 0 8V42C0 46.4183 3.58172 50 8 50H42C46.4183 50 50 46.4183 50 42V8C50 3.58172 46.4183 0 42 0Z" fill="#FFDEDE"/>
<path fill-rule="evenodd" clip-rule="evenodd" d="M29 15.5H21L19.5 17.5H18C17.2044 17.5 16.4413 17.8161 15.8787 18.3787C15.3161 18.9413 15 19.7044 15 20.5V30.5C15 31.2956 15.3161 32.0587 15.8787 32.6213C16.4413 33.1839 17.2044 33.5 18 33.5H32C32.7956 33.5 33.5587 33.1839 34.1213 32.6213C34.6839 32.0587 35 31.2956 35 30.5V20.5L34.995 20.324C34.9501 19.5601 34.615 18.8422 34.0583 18.3173C33.5015 17.7923 32.7652 17.5 32 17.5H30.5L29 15.5ZM28 17.5L29.5 19.5H32C32.2652 19.5 32.5196 19.6054 32.7071 19.7929C32.8946 19.9804 33 20.2348 33 20.5V30.5C33 30.7652 32.8946 31.0196 32.7071 31.2071C32.5196 31.3946 32.2652 31.5 32 31.5H18C17.7348 31.5 17.4804 31.3946 17.2929 31.2071C17.1054 31.0196 17 30.7652 17 30.5V20.5C17 20.2348 17.1054 19.9804 17.2929 19.7929C17.4804 19.6054 17.7348 19.5 18 19.5H20.5L22 17.5H28ZM25 20C23.6739 20 22.4021 20.5268 21.4645 21.4645C20.5268 22.4021 20 23.6739 20 25C20 26.3261 20.5268 27.5979 21.4645 28.5355C22.4021 29.4732 23.6739 30 25 30C26.3261 30 27.5979 29.4732 28.5355 28.5355C29.4732 27.5979 30 26.3261 30 25C30 23.6739 29.4732 22.4021 28.5355 21.4645C27.5979 20.5268 26.3261 20 25 20ZM25 22C25.394 22 25.7841 22.0776 26.1481 22.2284C26.512 22.3791 26.8427 22.6001 27.1213 22.8787C27.3999 23.1573 27.6209 23.488 27.7716 23.8519C27.9224 24.2159 28 24.606 28 25C28 25.394 27.9224 25.7841 27.7716 26.1481C27.6209 26.512 27.3999 26.8427 27.1213 27.1213C26.8427 27.3999 26.512 27.6209 26.1481 27.7716C25.7841 27.9224 25.394 28 25 28C24.2044 28 23.4413 27.6839 22.8787 27.1213C22.3161 26.5587 22 25.7956 22 25C22 24.2044 22.3161 23.4413 22.8787 22.8787C23.4413 22.3161 24.2044 22 25 22Z" fill="#0E0E0F"/>
</g>
<defs>
<clipPath id="clip0_1_215">
<rect width="50" height="50" fill="white"/>
</clipPath>
</defs>
</svg>
