<svg width="50" height="50" viewBox="0 0 50 50" fill="none" xmlns="http://www.w3.org/2000/svg">
<g clip-path="url(#clip0_1_203)">
<path d="M42 0H8C3.58172 0 0 3.58172 0 8V42C0 46.4183 3.58172 50 8 50H42C46.4183 50 50 46.4183 50 42V8C50 3.58172 46.4183 0 42 0Z" fill="#CDFAE4"/>
<path fill-rule="evenodd" clip-rule="evenodd" d="M24.892 15H25C30.523 15 35 19.477 35 25C35 25.2232 34.9927 25.4463 34.978 25.669C34.634 30.879 30.298 35 25 35C19.477 35 15 30.523 15 25C14.9987 23.4375 15.3641 21.8966 16.0668 20.501C16.7695 19.1055 17.79 17.8943 19.046 16.965C20.7376 15.7078 22.7845 15.0201 24.892 15.001V15ZM18.052 21.03C17.3602 22.2386 16.9975 23.6074 17 25C17 25.388 17.028 25.769 17.08 26.142C17.7855 26.3456 18.5157 26.4506 19.25 26.454L19.383 26.447C18.4872 24.7838 18.0295 22.9199 18.053 21.031L18.052 21.03ZM17.724 28.33C18.097 29.145 18.604 29.886 19.215 30.526C22.235 30.586 24.179 30.134 25.518 29.4C26.62 28.795 27.386 27.959 28.018 26.896C27.1855 26.4519 26.2796 26.1619 25.344 26.04C24.2383 27.0039 22.9311 27.7084 21.518 28.102C21.3794 28.1748 21.2256 28.2139 21.069 28.216C20.478 28.3506 19.8757 28.4303 19.27 28.454C18.7522 28.4529 18.2353 28.4115 17.724 28.33ZM22.011 32.423C22.9611 32.8054 23.9759 33.0012 25 33C26.1688 33.0011 27.3237 32.7456 28.3829 32.2514C29.4421 31.7572 30.3799 31.0364 31.13 30.14C30.8112 29.4781 30.4027 28.8633 29.916 28.313C29.8303 28.226 29.7427 28.1409 29.653 28.058C28.9 29.285 27.919 30.363 26.48 31.153C25.287 31.807 23.831 32.236 22.011 32.423ZM32.334 28.203C32.649 27.481 32.861 26.705 32.951 25.892C31.101 23.591 29.538 22.391 28.142 21.819C26.995 21.349 25.888 21.272 24.705 21.439C24.845 22.354 25.147 23.24 25.601 24.057C27.0738 24.2483 28.484 24.7707 29.726 25.585C29.8681 25.6419 29.9956 25.7301 30.099 25.843C30.5625 26.1789 30.9959 26.5547 31.394 26.966C31.74 27.353 32.054 27.768 32.334 28.203ZM32.612 22.531C32.1125 20.9935 31.1593 19.6433 29.8777 18.658C28.5961 17.6727 27.0462 17.0985 25.432 17.011C25.0946 17.6632 24.8486 18.3587 24.701 19.078C24.6834 19.1946 24.6684 19.3117 24.656 19.429C26.029 19.264 27.432 19.366 28.901 19.969C30.124 20.469 31.346 21.299 32.612 22.531ZM23.16 17.213C22.9749 17.7133 22.8301 18.2276 22.727 18.751C22.6416 19.3074 22.6041 19.8702 22.615 20.433C22.5827 20.5916 22.5896 20.7557 22.635 20.911C22.7269 22.2638 23.0973 23.5831 23.723 24.786C23.0404 25.3229 22.2732 25.7426 21.453 26.028C20.7458 24.9033 20.2925 23.6377 20.125 22.3197C19.9575 21.0016 20.0796 19.6629 20.483 18.397C21.2945 17.8402 22.2022 17.4388 23.16 17.213Z" fill="#0E0E0F"/>
</g>
<defs>
<clipPath id="clip0_1_203">
<rect width="50" height="50" fill="white"/>
</clipPath>
</defs>
</svg>
