<svg width="50" height="50" viewBox="0 0 50 50" fill="none" xmlns="http://www.w3.org/2000/svg">
<g clip-path="url(#clip0_1_191)">
<path d="M42 0H8C3.58172 0 0 3.58172 0 8V42C0 46.4183 3.58172 50 8 50H42C46.4183 50 50 46.4183 50 42V8C50 3.58172 46.4183 0 42 0Z" fill="#C9FAF9"/>
<path fill-rule="evenodd" clip-rule="evenodd" d="M26.6 22.416V30.801H21V15.6H26.6V16.481L29.143 15.615L30.089 15.293L30.412 16.239L34.465 28.135L34.787 29.081L33.84 29.404L30.433 30.564L29.486 30.887L29.164 29.941L26.6 22.416ZM30.734 28.35L27.327 18.348L28.841 17.832L32.249 27.834L30.734 28.35ZM16 15.6H15V30.8H20.6V15.6H16ZM17 28.8V17.6H18.6V28.8H17ZM16 33C15.7348 33 15.4804 33.1053 15.2929 33.2929C15.1054 33.4804 15 33.7348 15 34C15 34.2652 15.1054 34.5195 15.2929 34.7071C15.4804 34.8946 15.7348 35 16 35H34C34.2652 35 34.5196 34.8946 34.7071 34.7071C34.8946 34.5195 35 34.2652 35 34C35 33.7348 34.8946 33.4804 34.7071 33.2929C34.5196 33.1053 34.2652 33 34 33H16ZM23 17.6V28.8H24.6V17.6H23Z" fill="#0E0E0F"/>
</g>
<defs>
<clipPath id="clip0_1_191">
<rect width="50" height="50" fill="white"/>
</clipPath>
</defs>
</svg>
