<svg width="50" height="50" viewBox="0 0 50 50" fill="none" xmlns="http://www.w3.org/2000/svg">
<g clip-path="url(#clip0_1_199)">
<path d="M42 0H8C3.58172 0 0 3.58172 0 8V42C0 46.4183 3.58172 50 8 50H42C46.4183 50 50 46.4183 50 42V8C50 3.58172 46.4183 0 42 0Z" fill="#E7D6FD"/>
<path fill-rule="evenodd" clip-rule="evenodd" d="M23 17C23 16.7348 22.8946 16.4804 22.7071 16.2929C22.5196 16.1054 22.2652 16 22 16C21.7348 16 21.4804 16.1054 21.2929 16.2929C21.1054 16.4804 21 16.7348 21 17V33C21 33.2652 21.1054 33.5196 21.2929 33.7071C21.4804 33.8946 21.7348 34 22 34C22.2652 34 22.5196 33.8946 22.7071 33.7071C22.8946 33.5196 23 33.2652 23 33V17ZM19 19C19.2652 19 19.5196 19.1054 19.7071 19.2929C19.8946 19.4804 20 19.7348 20 20V30C20 30.2652 19.8946 30.5196 19.7071 30.7071C19.5196 30.8946 19.2652 31 19 31C18.7348 31 18.4804 30.8946 18.2929 30.7071C18.1054 30.5196 18 30.2652 18 30V20C18 19.7348 18.1054 19.4804 18.2929 19.2929C18.4804 19.1054 18.7348 19 19 19ZM16 22C16.2652 22 16.5196 22.1054 16.7071 22.2929C16.8946 22.4804 17 22.7348 17 23V27C17 27.2652 16.8946 27.5196 16.7071 27.7071C16.5196 27.8946 16.2652 28 16 28C15.7348 28 15.4804 27.8946 15.2929 27.7071C15.1054 27.5196 15 27.2652 15 27V23C15 22.7348 15.1054 22.4804 15.2929 22.2929C15.4804 22.1054 15.7348 22 16 22ZM28 22C28.2652 22 28.5196 22.1054 28.7071 22.2929C28.8946 22.4804 29 22.7348 29 23V27C29 27.2652 28.8946 27.5196 28.7071 27.7071C28.5196 27.8946 28.2652 28 28 28C27.7348 28 27.4804 27.8946 27.2929 27.7071C27.1054 27.5196 27 27.2652 27 27V23C27 22.7348 27.1054 22.4804 27.2929 22.2929C27.4804 22.1054 27.7348 22 28 22ZM35 23C35 22.7348 34.8946 22.4804 34.7071 22.2929C34.5196 22.1054 34.2652 22 34 22C33.7348 22 33.4804 22.1054 33.2929 22.2929C33.1054 22.4804 33 22.7348 33 23V27C33 27.2652 33.1054 27.5196 33.2929 27.7071C33.4804 27.8946 33.7348 28 34 28C34.2652 28 34.5196 27.8946 34.7071 27.7071C34.8946 27.5196 35 27.2652 35 27V23ZM26 20C26 19.7348 25.8946 19.4804 25.7071 19.2929C25.5196 19.1054 25.2652 19 25 19C24.7348 19 24.4804 19.1054 24.2929 19.2929C24.1054 19.4804 24 19.7348 24 20V30C24 30.2652 24.1054 30.5196 24.2929 30.7071C24.4804 30.8946 24.7348 31 25 31C25.2652 31 25.5196 30.8946 25.7071 30.7071C25.8946 30.5196 26 30.2652 26 30V20ZM31 19C31.2652 19 31.5196 19.1054 31.7071 19.2929C31.8946 19.4804 32 19.7348 32 20V30C32 30.2652 31.8946 30.5196 31.7071 30.7071C31.5196 30.8946 31.2652 31 31 31C30.7348 31 30.4804 30.8946 30.2929 30.7071C30.1054 30.5196 30 30.2652 30 30V20C30 19.7348 30.1054 19.4804 30.2929 19.2929C30.4804 19.1054 30.7348 19 31 19Z" fill="#0E0E0F"/>
</g>
<defs>
<clipPath id="clip0_1_199">
<rect width="50" height="50" fill="white"/>
</clipPath>
</defs>
</svg>
