<svg width="50" height="50" viewBox="0 0 50 50" fill="none" xmlns="http://www.w3.org/2000/svg">
<g clip-path="url(#clip0_1_219)">
<path d="M42 0H8C3.58172 0 0 3.58172 0 8V42C0 46.4183 3.58172 50 8 50H42C46.4183 50 50 46.4183 50 42V8C50 3.58172 46.4183 0 42 0Z" fill="#FFE2B2"/>
<path fill-rule="evenodd" clip-rule="evenodd" d="M19.797 18.0179C20.6404 17.9326 21.4891 18.1175 22.2206 18.5458C22.9521 18.9741 23.5286 19.6237 23.867 20.4009H26.133C26.4972 19.564 27.1367 18.8769 27.9452 18.4535C28.7538 18.0301 29.6828 17.896 30.5781 18.0733C31.4734 18.2507 32.2811 18.7289 32.8672 19.4286C33.4533 20.1283 33.7824 21.0074 33.8 21.9199L34.955 29.3579C35.0405 29.7732 35.0042 30.2043 34.8505 30.5994C34.6968 30.9945 34.4322 31.3367 34.0885 31.585C33.7449 31.8332 33.3368 31.9769 32.9134 31.9987C32.49 32.0205 32.0693 31.9196 31.702 31.7079L31.682 31.6969L26.509 28.4029H23.49L18.317 31.6969L18.297 31.7069C17.9297 31.9185 17.5092 32.0194 17.0859 31.9976C16.6627 31.9758 16.2547 31.8322 15.9111 31.5841C15.5675 31.336 15.3029 30.9939 15.149 30.599C14.9952 30.2041 14.9587 29.7731 15.044 29.3579L16.199 21.9199C16.2185 20.9426 16.5952 20.0063 17.2579 19.2878C17.9206 18.5692 18.8235 18.1182 19.796 18.0199L19.797 18.0179ZM21.386 20.3879C21.088 20.1682 20.7349 20.0355 20.3659 20.0046C19.997 19.9737 19.6267 20.0458 19.2963 20.2129C18.9659 20.38 18.6884 20.6356 18.4947 20.9511C18.3009 21.2666 18.1986 21.6297 18.199 21.9999V22.0779L17.012 29.7239L17.005 29.7569C16.9967 29.7938 16.9991 29.8323 17.0117 29.8679C17.0244 29.9035 17.0469 29.9347 17.0766 29.9581C17.1063 29.9814 17.1421 29.9958 17.1797 29.9997C17.2172 30.0036 17.2551 29.9967 17.289 29.9799L22.909 26.4019H27.092L32.712 29.9799C32.7458 29.9964 32.7836 30.0031 32.821 29.9991C32.8584 29.9951 32.894 29.9806 32.9235 29.9573C32.9531 29.934 32.9755 29.9029 32.9881 29.8674C33.0008 29.832 33.0031 29.7937 32.995 29.7569L32.988 29.7239L31.801 22.0779V21.9999C31.8015 21.504 31.6177 21.0255 31.2853 20.6574C30.9528 20.2893 30.4955 20.0579 30.002 20.0081C29.5085 19.9582 29.0141 20.0935 28.6148 20.3877C28.2155 20.6818 27.9397 21.1139 27.841 21.5999L27.678 22.4009H22.322L22.16 21.6009C22.0614 21.1146 21.7856 20.6822 21.386 20.3879ZM20.3 25.0019V24.3019H19.6V23.3019H20.3V22.6019H21.3V23.3019H22V24.3019H21.3V25.0019H20.3ZM29.259 24.7089C29.5242 24.7089 29.7786 24.6036 29.9661 24.416C30.1536 24.2285 30.259 23.9742 30.259 23.7089C30.259 23.4437 30.1536 23.1894 29.9661 23.0018C29.7786 22.8143 29.5242 22.7089 29.259 22.7089C28.9938 22.7089 28.7394 22.8143 28.5519 23.0018C28.3644 23.1894 28.259 23.4437 28.259 23.7089C28.259 23.9742 28.3644 24.2285 28.5519 24.416C28.7394 24.6036 28.9938 24.7089 29.259 24.7089Z" fill="#0E0E0F"/>
</g>
<defs>
<clipPath id="clip0_1_219">
<rect width="50" height="50" fill="white"/>
</clipPath>
</defs>
</svg>
