<svg width="50" height="50" viewBox="0 0 50 50" fill="none" xmlns="http://www.w3.org/2000/svg">
<path fill-rule="evenodd" clip-rule="evenodd" d="M15.645 2.96503L33.92 0.60503C34.695 0.50503 35.415 1.01503 35.58 1.77503L38.875 16.97C39.06 17.825 38.475 18.66 37.61 18.775L19.885 21.145C19.5199 21.1932 19.1498 21.1058 18.8448 20.8994C18.5398 20.6929 18.3211 20.3819 18.23 20.025L14.38 4.82003C14.165 3.95003 14.755 3.08003 15.645 2.96503Z" fill="#9E58FF"/>
<path fill-rule="evenodd" clip-rule="evenodd" d="M30.39 6.11001L46.65 9.71001C47.515 9.90001 48.025 10.795 47.755 11.635L42.865 26.755C42.7499 27.1097 42.5071 27.409 42.1837 27.5947C41.8603 27.7805 41.4794 27.8394 41.115 27.76L24.88 24.19C24.6758 24.1452 24.4833 24.0582 24.3148 23.9345C24.1462 23.8109 24.0054 23.6534 23.9014 23.4721C23.7973 23.2908 23.7323 23.0898 23.7105 22.8819C23.6888 22.674 23.7107 22.4639 23.775 22.265L28.64 7.11001C28.754 6.75484 28.9969 6.45522 29.3208 6.27014C29.6447 6.08507 30.0261 6.02794 30.39 6.11001Z" fill="url(#paint0_linear_1_21)"/>
<path fill-rule="evenodd" clip-rule="evenodd" d="M12.86 12.96L30.38 9.74001C31.135 9.60001 31.875 10.06 32.09 10.795L36.59 26.31C36.84 27.165 36.29 28.05 35.41 28.205L17.99 31.28C17.24 31.41 16.51 30.96 16.29 30.235L11.69 14.865C11.44 14.01 11.985 13.12 12.86 12.96Z" fill="url(#paint1_linear_1_21)"/>
<path fill-rule="evenodd" clip-rule="evenodd" d="M10.525 18.62L9.885 16.95C9.50624 15.8573 8.79582 14.9101 7.85288 14.2405C6.90993 13.5709 5.78149 13.2124 4.625 13.215H1.595C1.045 13.215 0.595001 13.665 0.595001 14.215V15.655C0.595001 16.205 1.045 16.655 1.595 16.655H4.625C5.06787 16.6512 5.5007 16.7868 5.8623 17.0425C6.2239 17.2983 6.49595 17.6612 6.64 18.08L6.84 18.62L14.16 38.385C14.16 38.385 15.34 41.73 19.025 41.73H37.56C41.395 41.73 42.425 38.34 42.425 38.34L48.785 20.635C49.135 19.66 48.41 18.63 47.375 18.63H10.525V18.62Z" fill="url(#paint2_linear_1_21)"/>
<path d="M38.695 49.1C39.4124 49.1 40.1004 48.815 40.6077 48.3077C41.115 47.8004 41.4 47.1124 41.4 46.395C41.4 45.6776 41.115 44.9896 40.6077 44.4823C40.1004 43.975 39.4124 43.69 38.695 43.69C37.9776 43.69 37.2896 43.975 36.7823 44.4823C36.275 44.9896 35.99 45.6776 35.99 46.395C35.99 47.1124 36.275 47.8004 36.7823 48.3077C37.2896 48.815 37.9776 49.1 38.695 49.1ZM17.975 49.1C18.6924 49.1 19.3804 48.815 19.8877 48.3077C20.395 47.8004 20.68 47.1124 20.68 46.395C20.68 45.6776 20.395 44.9896 19.8877 44.4823C19.3804 43.975 18.6924 43.69 17.975 43.69C17.2576 43.69 16.5696 43.975 16.0623 44.4823C15.555 44.9896 15.27 45.6776 15.27 46.395C15.27 47.1124 15.555 47.8004 16.0623 48.3077C16.5696 48.815 17.2576 49.1 17.975 49.1Z" fill="#6061EC"/>
<path fill-rule="evenodd" clip-rule="evenodd" d="M18.855 41.705C15.02 41.705 13.99 38.315 13.99 38.315L7.67999 20.565C7.66499 20.525 7.71999 20.5 7.73999 20.53C8.33499 21.375 13.81 32.395 19.94 36.03C25.88 39.555 36.985 41.635 37.645 41.655C38.305 41.675 37.875 41.72 37.675 41.72C35.41 41.77 21.35 41.705 18.855 41.705Z" fill="#6061EC"/>
<defs>
<linearGradient id="paint0_linear_1_21" x1="42.6635" y1="2.16001" x2="26.3955" y2="36.933" gradientUnits="userSpaceOnUse">
<stop offset="0.177" stop-color="#BDDCCB"/>
<stop offset="0.221" stop-color="#B8DCCC"/>
<stop offset="0.271" stop-color="#ABDAD0"/>
<stop offset="0.323" stop-color="#95D8D6"/>
<stop offset="0.377" stop-color="#76D5DF"/>
<stop offset="0.431" stop-color="#4ED1E9"/>
<stop offset="0.465" stop-color="#32CEF1"/>
</linearGradient>
<linearGradient id="paint1_linear_1_21" x1="34.2335" y1="3.76351" x2="19.847" y2="27.741" gradientUnits="userSpaceOnUse">
<stop offset="0.223" stop-color="#FDC9C4"/>
<stop offset="0.632" stop-color="#F674EC"/>
</linearGradient>
<linearGradient id="paint2_linear_1_21" x1="46.344" y1="1.04248" x2="10.061" y2="38.12" gradientUnits="userSpaceOnUse">
<stop stop-color="#FFD1FF"/>
<stop offset="1" stop-color="#4961FF"/>
</linearGradient>
</defs>
</svg>
