<svg width="20" height="20" viewBox="0 0 20 20" fill="none" xmlns="http://www.w3.org/2000/svg">
<g clip-path="url(#clip0_1_326)">
<path fill-rule="evenodd" clip-rule="evenodd" d="M10.9245 1C12.5449 1.00294 12.8876 1.01592 13.7105 1.05346C14.6685 1.09715 15.3227 1.24932 15.8952 1.47182C16.4871 1.7018 16.989 2.00955 17.4894 2.50991C17.9897 3.0103 18.2975 3.51222 18.5275 4.10408C18.75 4.67657 18.9021 5.33083 18.9458 6.28882C18.9834 7.11166 18.9964 7.45439 18.9993 9.07483L19 9.74582V9.99967C19 10.087 19 10.1715 19 10.2535L18.9993 10.9245C18.9964 12.5449 18.9834 12.8876 18.9458 13.7105C18.9021 14.6685 18.75 15.3227 18.5275 15.8952C18.2975 16.4871 17.9897 16.989 17.4894 17.4894C16.989 17.9897 16.4871 18.2975 15.8952 18.5275C15.3227 18.75 14.6685 18.9021 13.7105 18.9458C12.8876 18.9834 12.5449 18.9964 10.9245 18.9993L10.2535 19H9.99967C9.91237 19 9.8278 19 9.74582 19L9.07483 18.9993C7.45439 18.9964 7.11166 18.9834 6.28882 18.9458C5.33083 18.9021 4.67657 18.75 4.10408 18.5275C3.51222 18.2975 3.0103 17.9897 2.50991 17.4894C2.00955 16.989 1.7018 16.4871 1.47182 15.8952C1.24932 15.3227 1.09715 14.6685 1.05346 13.7105C1.01592 12.8876 1.00294 12.5449 1 10.9245V9.07483C1.00294 7.45439 1.01592 7.11166 1.05346 6.28882C1.09715 5.33083 1.24932 4.67657 1.47182 4.10408C1.7018 3.51222 2.00955 3.0103 2.50991 2.50991C3.0103 2.00955 3.51222 1.7018 4.10408 1.47182C4.67657 1.24932 5.33083 1.09715 6.28882 1.05346C7.11166 1.01592 7.45439 1.00294 9.07483 1H10.9245ZM10.5 2.62114H9.49936C8.09628 2.62214 7.54315 2.62804 7.01541 2.64623L6.83931 2.65276C6.69145 2.6586 6.53849 2.66544 6.36273 2.67346C5.48521 2.71348 5.00865 2.8601 4.6915 2.98336C4.27139 3.14663 3.97157 3.34166 3.65663 3.65663C3.34166 3.97157 3.14663 4.27139 2.98336 4.6915C2.8601 5.00865 2.71348 5.48521 2.67346 6.36273C2.66544 6.53849 2.6586 6.69145 2.65276 6.83931L2.64623 7.01541C2.62804 7.54315 2.62214 8.09628 2.62114 9.49936V10.5C2.62214 11.903 2.62804 12.4561 2.64623 12.9839L2.65276 13.16C2.6586 13.3078 2.66544 13.4608 2.67346 13.6366C2.71348 14.5141 2.8601 14.9907 2.98336 15.3078C3.14663 15.7279 3.3417 16.0277 3.65663 16.3427C3.97157 16.6576 4.27139 16.8527 4.6915 17.0159C5.00865 17.1392 5.48521 17.2858 6.36273 17.3258C6.53847 17.3339 6.69141 17.3407 6.83925 17.3465L7.01534 17.3531C7.54303 17.3713 8.09615 17.3772 9.49933 17.3782H10.5C11.9032 17.3772 12.4563 17.3713 12.984 17.3531L13.1601 17.3465C13.3079 17.3407 13.4608 17.3339 13.6366 17.3258C14.5141 17.2858 14.9907 17.1392 15.3078 17.0159C15.7279 16.8527 16.0277 16.6576 16.3427 16.3427C16.6576 16.0277 16.8527 15.7279 17.0159 15.3078C17.1392 14.9907 17.2858 14.5141 17.3258 13.6366C17.3339 13.4608 17.3407 13.3078 17.3465 13.16L17.3531 12.9839C17.3713 12.4561 17.3772 11.903 17.3782 10.5V9.49936C17.3772 8.09628 17.3713 7.54315 17.3531 7.01541L17.3465 6.83931C17.3407 6.69145 17.3339 6.53849 17.3258 6.36273C17.2858 5.48521 17.1392 5.00865 17.0159 4.6915C16.8527 4.27139 16.6576 3.97157 16.3427 3.65663C16.0277 3.34166 15.7279 3.14663 15.3078 2.98336C14.9907 2.8601 14.5141 2.71348 13.6366 2.67346C13.4608 2.66544 13.3078 2.6586 13.16 2.65276L12.9839 2.64623C12.4561 2.62804 11.903 2.62214 10.5 2.62114ZM9.99967 5.37785C12.5522 5.37785 14.6214 7.44708 14.6214 9.99967C14.6214 12.5522 12.5522 14.6214 9.99967 14.6214C7.44708 14.6214 5.37785 12.5522 5.37785 9.99967C5.37785 7.44708 7.44708 5.37785 9.99967 5.37785ZM9.99967 6.99953C8.34272 6.99953 6.99953 8.34272 6.99953 9.99967C6.99953 11.6566 8.34272 12.9998 9.99967 12.9998C11.6566 12.9998 12.9998 11.6566 12.9998 9.99967C12.9998 8.34272 11.6566 6.99953 9.99967 6.99953ZM14.804 4.11519C15.4005 4.11519 15.8841 4.59875 15.8841 5.19525C15.8841 5.79175 15.4005 6.27528 14.804 6.27528C14.2076 6.27528 13.724 5.79175 13.724 5.19525C13.724 4.59875 14.2076 4.11519 14.804 4.11519Z" fill="#0E0E0F" stroke="#0E0E0F" stroke-width="0.5"/>
</g>
<defs>
<clipPath id="clip0_1_326">
<rect width="20" height="20" fill="white"/>
</clipPath>
</defs>
</svg>
