<svg width="18" height="17" viewBox="0 0 18 17" fill="none" xmlns="http://www.w3.org/2000/svg">
<g clip-path="url(#clip0_1_320)">
<path d="M18 16.9371H14.1208V10.852C14.1208 9.13768 13.4627 8.27985 12.1493 8.27985C11.2157 8.27985 10.5794 8.74022 10.2402 9.66095C10.114 9.9112 10.0502 10.2244 10.0502 10.6017V17H6.16961V5.58325H10.0502V7.21326C10.8548 5.9593 12 5.33165 13.4844 5.33165C14.1615 5.33165 14.7775 5.43604 15.3284 5.64481C15.8792 5.85492 16.3243 6.14666 16.6649 6.52405C17.0461 6.9001 17.3419 7.44344 17.555 8.1554C17.8087 8.99181 17.9362 9.74392 17.9362 10.4131V16.9371H18ZM0.255088 16.9371H4.1981V5.52035H0.255088V16.9371ZM0.636364 3.38715C0.297151 3.09407 0.0854817 2.63371 0 2.0074C0 1.42124 0.191316 0.940801 0.572592 0.564748C1.03935 0.187357 1.56852 0 2.16282 0C2.79919 0 3.30801 0.187357 3.68928 0.564748C4.11262 0.982288 4.346 1.46273 4.38942 2.0074C4.38942 2.50925 4.17639 2.96828 3.75305 3.38715C3.37178 3.76321 2.86296 3.9519 2.22659 3.9519C1.54817 3.9519 1.01764 3.76321 0.636364 3.38715Z" fill="#0E0E0F"/>
</g>
<defs>
<clipPath id="clip0_1_320">
<rect width="18" height="17" fill="white"/>
</clipPath>
</defs>
</svg>
