<svg width="22" height="12" viewBox="0 0 22 12" fill="none" xmlns="http://www.w3.org/2000/svg">
<g clip-path="url(#clip0_1_328)">
<path fill-rule="evenodd" clip-rule="evenodd" d="M5.26087 1.04348H11.2976L9.71722 10.9565H5.26087C4.51594 10.9565 3.41578 10.6245 2.5165 9.82675C1.65197 9.05987 0.956523 7.85148 0.956523 6C0.956523 4.14852 1.65197 2.94013 2.5165 2.17324C3.41578 1.37554 4.51594 1.04348 5.26087 1.04348ZM5.26087 0H11.4639H12.4348H16.7392C18.5586 6.14952e-06 22 1.31638 22 6C22 10.6836 18.6522 12 16.7392 12H10.5218H5.26087C3.34782 12 0 10.3636 0 6C0 1.63637 3.34782 -3.32917e-06 5.26087 0Z" fill="white"/>
<path fill-rule="evenodd" clip-rule="evenodd" d="M16.1327 5.99712C16.2734 5.92748 16.4068 5.83428 16.5224 5.70861L18.3333 3.74038L17.652 3L15.8411 4.96823C15.6961 5.12532 15.4599 5.12584 15.3154 4.96823L13.5147 3.01204L12.8333 3.75242L14.634 5.70861C14.7525 5.83742 14.8889 5.93324 15.034 6.0034C14.8932 6.07304 14.7598 6.16572 14.6442 6.29139L12.8333 8.25962L13.5147 9L15.3255 7.03281C15.471 6.87364 15.7072 6.87521 15.8517 7.03229L17.652 8.98848L18.3333 8.2481L16.5331 6.29139C16.4145 6.16258 16.2777 6.06728 16.1327 5.99712Z" fill="black" stroke="#0E0E0F"/>
<path fill-rule="evenodd" clip-rule="evenodd" d="M8.30995 3L5.08611 7.50641L3.51963 5.79042L2.75 6.63351L4.75082 8.8253C4.85315 8.93739 4.9914 9 5.13563 9C5.14652 9 5.15741 8.9994 5.1683 8.99881C5.32396 8.98808 5.46765 8.9052 5.56399 8.77164L9.16667 3.73576L8.30995 3Z" fill="white"/>
</g>
<defs>
<clipPath id="clip0_1_328">
<rect width="22" height="12" fill="white"/>
</clipPath>
</defs>
</svg>
