<svg width="18" height="14" viewBox="0 0 18 14" fill="none" xmlns="http://www.w3.org/2000/svg">
<g clip-path="url(#clip0_1_323)">
<path d="M18 1.6574C17.3377 1.93878 16.626 2.12828 15.879 2.2137C16.6418 1.77656 17.2275 1.08388 17.5028 0.258409C16.7895 0.663249 15.999 0.957547 15.1575 1.11618C14.4847 0.429245 13.524 0 12.462 0C10.0777 0 8.32575 2.129 8.86425 4.33911C5.796 4.19196 3.075 2.78507 1.25325 0.646739C0.28575 2.23523 0.7515 4.31327 2.3955 5.36556C1.791 5.3469 1.221 5.18827 0.72375 4.9234C0.68325 6.5607 1.9095 8.09249 3.6855 8.43345C3.16575 8.56839 2.5965 8.59998 2.0175 8.49374C2.487 9.89776 3.8505 10.9192 5.4675 10.9479C3.915 12.1129 1.959 12.6333 0 12.4122C1.63425 13.415 3.576 14 5.661 14C12.5175 14 16.3912 8.45785 16.1572 3.48708C16.8787 2.98821 17.505 2.36587 18 1.6574Z" fill="#0E0E0F"/>
</g>
<defs>
<clipPath id="clip0_1_323">
<rect width="18" height="14" fill="white"/>
</clipPath>
</defs>
</svg>
