<svg width="16" height="21" viewBox="0 0 16 21" fill="none" xmlns="http://www.w3.org/2000/svg">
<path fill-rule="evenodd" clip-rule="evenodd" d="M2.00243 8.35906C2.00243 5.65323 4.24374 3.45973 7.00852 3.45973C9.77331 3.45973 12.0146 5.65323 12.0146 8.35906C12.0146 11.0649 9.77331 13.2584 7.00852 13.2584C4.24374 13.2584 2.00243 11.0649 2.00243 8.35906ZM7.00852 1.5C3.13782 1.5 0 4.5709 0 8.35906C0 12.1472 3.13782 15.2181 7.00852 15.2181C8.23309 15.2181 9.3843 14.9108 10.386 14.3706L14.412 19.5L16 18.3062L11.9841 13.1896C13.2408 11.95 14.017 10.2432 14.017 8.35906C14.017 4.5709 10.8792 1.5 7.00852 1.5Z" fill="#0E0E0F"/>
</svg>
